Exact Audio Copy V0.99 prebeta 1 from 25. May 2007

EAC 抓取日志文件从13. 十月 2010, 23:31

沈小岑、张暴默 / 20世纪中华歌坛名人百集珍藏版

使用驱动器  ：BENQ    DVD-ROM 16X   Adapter: 0  ID: 1

读取模式     : 保护
使用精确流   : 是
废除音频缓冲 : 是
使用 C2 指针 : 否

读取偏移校正                   : 738
读取 Lead-In 和 Lead-Out       : 否
用静音填充抓取中丢失偏移的采样 : 是
去除首尾静音块                 : 否
已用接口                       : 已安装外部 ASPI 接口

所用输出格式 : 内部 WAV 函数
样本格式     : 44.100 Hz;16 Bit;立体声


被抓轨 CD 的 TOC

     音轨 |   开始   |   长度   | 起始扇区 | 结尾扇区 
    --------------------------------------------------
       1  |  0:00.00 |  2:07.50 |       0  |    9574  
       2  |  2:07.50 |  3:17.47 |    9575  |   24396  
       3  |  5:25.22 |  1:42.40 |   24397  |   32086  
       4  |  7:07.62 |  2:37.38 |   32087  |   43899  
       5  |  9:45.25 |  2:22.62 |   43900  |   54611  
       6  | 12:08.12 |  3:12.63 |   54612  |   69074  
       7  | 15:21.00 |  2:26.12 |   69075  |   80036  
       8  | 17:47.12 |  2:55.53 |   80037  |   93214  
       9  | 20:42.65 |  4:28.40 |   93215  |  113354  
      10  | 25:11.30 |  3:30.40 |  113355  |  129144  
      11  | 28:41.70 |  2:34.02 |  129145  |  140696  
      12  | 31:15.72 |  2:58.03 |  140697  |  154049  
      13  | 34:14.00 |  3:10.22 |  154050  |  168321  
      14  | 37:24.22 |  4:43.33 |  168322  |  189579  
      15  | 42:07.55 |  2:08.52 |  189580  |  199231  
      16  | 44:16.32 |  4:02.50 |  199232  |  217431  
      17  | 48:19.07 |  3:20.70 |  217432  |  232501  


范围状态及错误

已选择范围

     文件名 E:\文件夹\20世纪中华歌坛名人百集珍藏版-沈小岑、张暴默[lwg188原创]\沈小岑、张暴默 - 20世纪中华歌坛名人百集珍藏版.wav

     峰值电平 100.0 %
     范围质量 100.0 %
     复制 CRC A436996A
     复制成功

没有错误发生

状态报告结尾
